<?xml version="1.0" encoding="UTF-8"?>
<!DOCTYPE svg PUBLIC "-//W3C//DTD SVG 1.1//EN" "http://www.w3.org/Graphics/SVG/1.1/DTD/svg11.dtd">
<svg xmlns="http://www.w3.org/2000/svg" version="1.1" width="512px" height="512px" style="shape-rendering:geometricPrecision; text-rendering:geometricPrecision; image-rendering:optimizeQuality; fill-rule:evenodd; clip-rule:evenodd" xmlns:xlink="http://www.w3.org/1999/xlink">
<g><path style="opacity:0.988" fill="#02b3d6" d="M 153.5,45.5 C 158.58,45.2497 163.58,45.7497 168.5,47C 234.14,66.215 299.473,86.215 364.5,107C 368.734,110.639 371.568,115.139 373,120.5C 373.5,236.833 373.667,353.166 373.5,469.5C 348.167,469.5 322.833,469.5 297.5,469.5C 297.974,441.769 297.474,414.103 296,386.5C 293.014,380.18 288.181,376.013 281.5,374C 264.167,373.333 246.833,373.333 229.5,374C 222.819,376.013 217.986,380.18 215,386.5C 213.526,414.103 213.026,441.769 213.5,469.5C 188.167,469.5 162.833,469.5 137.5,469.5C 137.333,334.166 137.5,198.833 138,63.5C 139.839,54.5031 145.006,48.5031 153.5,45.5 Z M 210.5,170.5 C 219.173,170.334 227.84,170.5 236.5,171C 240.333,172.167 242.833,174.667 244,178.5C 244.667,187.167 244.667,195.833 244,204.5C 242.833,208.333 240.333,210.833 236.5,212C 227.833,212.667 219.167,212.667 210.5,212C 206.667,210.833 204.167,208.333 203,204.5C 202.333,195.833 202.333,187.167 203,178.5C 204.353,174.65 206.853,171.983 210.5,170.5 Z M 274.5,170.5 C 283.173,170.334 291.84,170.5 300.5,171C 304.333,172.167 306.833,174.667 308,178.5C 308.667,187.167 308.667,195.833 308,204.5C 306.833,208.333 304.333,210.833 300.5,212C 291.833,212.667 283.167,212.667 274.5,212C 270.667,210.833 268.167,208.333 267,204.5C 266.333,195.833 266.333,187.167 267,178.5C 268.353,174.65 270.853,171.983 274.5,170.5 Z M 210.5,234.5 C 219.173,234.334 227.84,234.5 236.5,235C 240.333,236.167 242.833,238.667 244,242.5C 244.667,251.167 244.667,259.833 244,268.5C 242.833,272.333 240.333,274.833 236.5,276C 227.833,276.667 219.167,276.667 210.5,276C 206.667,274.833 204.167,272.333 203,268.5C 202.333,259.833 202.333,251.167 203,242.5C 204.353,238.65 206.853,235.983 210.5,234.5 Z M 274.5,234.5 C 283.173,234.334 291.84,234.5 300.5,235C 304.333,236.167 306.833,238.667 308,242.5C 308.667,251.167 308.667,259.833 308,268.5C 306.833,272.333 304.333,274.833 300.5,276C 291.833,276.667 283.167,276.667 274.5,276C 270.667,274.833 268.167,272.333 267,268.5C 266.333,259.833 266.333,251.167 267,242.5C 268.353,238.65 270.853,235.983 274.5,234.5 Z M 210.5,298.5 C 219.173,298.334 227.84,298.5 236.5,299C 240.333,300.167 242.833,302.667 244,306.5C 244.667,315.167 244.667,323.833 244,332.5C 242.833,336.333 240.333,338.833 236.5,340C 227.833,340.667 219.167,340.667 210.5,340C 206.667,338.833 204.167,336.333 203,332.5C 202.333,323.833 202.333,315.167 203,306.5C 204.353,302.65 206.853,299.983 210.5,298.5 Z M 274.5,298.5 C 283.173,298.334 291.84,298.5 300.5,299C 304.333,300.167 306.833,302.667 308,306.5C 308.667,315.167 308.667,323.833 308,332.5C 306.833,336.333 304.333,338.833 300.5,340C 291.833,340.667 283.167,340.667 274.5,340C 270.667,338.833 268.167,336.333 267,332.5C 266.333,323.833 266.333,315.167 267,306.5C 268.353,302.65 270.853,299.983 274.5,298.5 Z"/></g>
<g><path style="opacity:0.985" fill="#00b3d7" d="M 80.5,105.5 C 92.8333,105.5 105.167,105.5 117.5,105.5C 117.5,226.833 117.5,348.167 117.5,469.5C 94.8309,469.667 72.1642,469.5 49.5,469C 39.664,462.964 38.9973,455.964 47.5,448C 52.8229,447.501 58.1563,447.334 63.5,447.5C 63.3333,338.499 63.5,229.499 64,120.5C 67.1981,112.795 72.6981,107.795 80.5,105.5 Z"/></g>
<g><path style="opacity:0.984" fill="#01b3d7" d="M 393.5,186.5 C 408.94,194.722 424.273,203.222 439.5,212C 443.104,214.708 445.604,218.208 447,222.5C 447.5,297.499 447.667,372.499 447.5,447.5C 452.844,447.334 458.177,447.501 463.5,448C 472.003,455.964 471.336,462.964 461.5,469C 438.836,469.5 416.169,469.667 393.5,469.5C 393.5,375.167 393.5,280.833 393.5,186.5 Z"/></g>
<g><path style="opacity:0.954" fill="#00b3d7" d="M 233.5,393.5 C 248.167,393.5 262.833,393.5 277.5,393.5C 277.5,418.833 277.5,444.167 277.5,469.5C 262.833,469.5 248.167,469.5 233.5,469.5C 233.5,444.167 233.5,418.833 233.5,393.5 Z"/></g>
</svg>
