<?xml version="1.0" encoding="UTF-8" standalone="no"?>
<!DOCTYPE svg PUBLIC "-//W3C//DTD SVG 1.1//EN" "http://www.w3.org/Graphics/SVG/1.1/DTD/svg11.dtd">
<svg xmlns="http://www.w3.org/2000/svg" version="1.1" viewBox="0 0 59 52">
<g stroke-width="2.00" fill="none" stroke-linecap="butt">
<path stroke="#95b8fe" vector-effect="non-scaling-stroke" d="
  M 36.85 13.19
  Q 37.01 10.73 36.18 8.47
  A 0.73 0.70 80.1 0 0 35.51 7.98
  L 14.43 7.77
  Q 12.57 7.76 12.56 9.67
  L 12.50 42.67
  A 2.93 2.88 68.1 0 1 11.63 44.75
  Q 10.29 46.07 10.88 46.77
  Q 11.24 47.18 12.38 47.21
  Q 15.41 47.29 19.03 47.24
  A 1.27 1.23 -90.0 0 0 20.24 45.99
  L 20.33 40.60
  A 1.25 1.16 -89.1 0 1 21.51 39.37
  L 27.94 39.47
  A 0.80 0.67 80.5 0 1 28.60 40.03
  Q 29.29 42.24 28.93 45.07
  Q 28.64 47.24 30.83 47.25
  Q 39.69 47.30 48.16 47.20
  Q 49.19 47.18 49.55 46.71
  Q 50.16 45.93 48.59 44.87
  A 2.06 1.96 -74.1 0 1 47.72 43.21
  L 47.46 14.57
  A 0.62 0.62 -85.5 0 0 46.95 13.97
  Q 42.16 13.17 37.31 13.64
  A 0.43 0.43 -0.6 0 1 36.85 13.19"
/>
<path stroke="#95b8fe" vector-effect="non-scaling-stroke" d="
  M 26.8102 41.8598
  A 1.06 1.06 0.0 0 0 25.7651 40.7851
  L 23.6453 40.7555
  A 1.06 1.06 0.0 0 0 22.5706 41.8006
  L 22.5098 46.1602
  A 1.06 1.06 0.0 0 0 23.5549 47.2349
  L 25.6747 47.2645
  A 1.06 1.06 0.0 0 0 26.7494 46.2194
  L 26.8102 41.8598"
/>
<path stroke="#95b8fe" vector-effect="non-scaling-stroke" d="
  M 23.4935 14.4373
  A 0.87 0.87 0.0 0 0 22.6266 13.5643
  L 20.1866 13.5558
  A 0.87 0.87 0.0 0 0 19.3136 14.4227
  L 19.3065 16.4627
  A 0.87 0.87 0.0 0 0 20.1734 17.3357
  L 22.6134 17.3442
  A 0.87 0.87 0.0 0 0 23.4864 16.4773
  L 23.4935 14.4373"
/>
<path stroke="#95b8fe" vector-effect="non-scaling-stroke" d="
  M 30.19 15.49
  A 2.25 2.25 0.0 0 0 27.94 13.24
  A 2.25 2.25 0.0 0 0 25.69 15.49
  A 2.25 2.25 0.0 0 0 27.94 17.74
  A 2.25 2.25 0.0 0 0 30.19 15.49"
/>
<path stroke="#95b8fe" vector-effect="non-scaling-stroke" d="
  M 23.5470 20.2914
  A 0.90 0.90 0.0 0 0 22.6692 19.3697
  L 20.2900 19.3115
  A 0.90 0.90 0.0 0 0 19.3682 20.1893
  L 19.3130 22.4486
  A 0.90 0.90 0.0 0 0 20.1908 23.3703
  L 22.5700 23.4285
  A 0.90 0.90 0.0 0 0 23.4918 22.5507
  L 23.5470 20.2914"
/>
<path stroke="#95b8fe" vector-effect="non-scaling-stroke" d="
  M 30.3127 21.5667
  A 2.38 2.28 4.5 0 0 28.1189 19.1070
  A 2.38 2.28 4.5 0 0 25.5673 21.1933
  A 2.38 2.28 4.5 0 0 27.7611 23.6530
  A 2.38 2.28 4.5 0 0 30.3127 21.5667"
/>
<path stroke="#95b8fe" vector-effect="non-scaling-stroke" d="
  M 43.46 20.75
  A 1.43 1.43 0.0 0 0 42.03 19.32
  L 40.67 19.32
  A 1.43 1.43 0.0 0 0 39.24 20.75
  L 39.24 22.03
  A 1.43 1.43 0.0 0 0 40.67 23.46
  L 42.03 23.46
  A 1.43 1.43 0.0 0 0 43.46 22.03
  L 43.46 20.75"
/>
<path stroke="#95b8fe" vector-effect="non-scaling-stroke" d="
  M 23.5028 26.0008
  A 0.78 0.78 0.0 0 0 22.7119 25.2318
  L 20.0722 25.2686
  A 0.78 0.78 0.0 0 0 19.3032 26.0594
  L 19.3372 28.4992
  A 0.78 0.78 0.0 0 0 20.1281 29.2682
  L 22.7678 29.2314
  A 0.78 0.78 0.0 0 0 23.5368 28.4406
  L 23.5028 26.0008"
/>
<path stroke="#95b8fe" vector-effect="non-scaling-stroke" d="
  M 30.1691 26.5442
  A 1.28 1.28 0.0 0 0 28.9208 25.2333
  L 27.0613 25.1879
  A 1.28 1.28 0.0 0 0 25.7504 26.4362
  L 25.7109 28.0558
  A 1.28 1.28 0.0 0 0 26.9592 29.3667
  L 28.8187 29.4121
  A 1.28 1.28 0.0 0 0 30.1296 28.1638
  L 30.1691 26.5442"
/>
<path stroke="#95b8fe" vector-effect="non-scaling-stroke" d="
  M 43.4742 26.4933
  A 1.31 1.31 0.0 0 0 42.1193 25.2298
  L 40.3204 25.2926
  A 1.31 1.31 0.0 0 0 39.0569 26.6476
  L 39.1058 28.0467
  A 1.31 1.31 0.0 0 0 40.4607 29.3102
  L 42.2596 29.2474
  A 1.31 1.31 0.0 0 0 43.5231 27.8924
  L 43.4742 26.4933"
/>
<path stroke="#95b8fe" vector-effect="non-scaling-stroke" d="
  M 23.5010 31.7724
  A 0.56 0.56 0.0 0 0 22.9498 31.2036
  L 19.9702 31.1568
  A 0.56 0.56 0.0 0 0 19.4015 31.7080
  L 19.3590 34.4076
  A 0.56 0.56 0.0 0 0 19.9102 34.9764
  L 22.8898 35.0232
  A 0.56 0.56 0.0 0 0 23.4585 34.4720
  L 23.5010 31.7724"
/>
<path stroke="#95b8fe" vector-effect="non-scaling-stroke" d="
  M 30.1029 32.2032
  A 1.09 1.09 0.0 0 0 28.9701 31.1578
  L 26.7918 31.2453
  A 1.09 1.09 0.0 0 0 25.7464 32.3782
  L 25.8171 34.1368
  A 1.09 1.09 0.0 0 0 26.9499 35.1822
  L 29.1282 35.0947
  A 1.09 1.09 0.0 0 0 30.1736 33.9618
  L 30.1029 32.2032"
/>
<path stroke="#95b8fe" vector-effect="non-scaling-stroke" d="
  M 43.48 32.33
  A 1.07 1.07 0.0 0 0 42.41 31.26
  L 40.17 31.26
  A 1.07 1.07 0.0 0 0 39.10 32.33
  L 39.10 33.91
  A 1.07 1.07 0.0 0 0 40.17 34.98
  L 42.41 34.98
  A 1.07 1.07 0.0 0 0 43.48 33.91
  L 43.48 32.33"
/>
<path stroke="#95b8fe" vector-effect="non-scaling-stroke" d="
  M 43.4571 38.1385
  A 0.97 0.97 0.0 0 0 42.4637 37.1925
  L 40.1644 37.2487
  A 0.97 0.97 0.0 0 0 39.2184 38.2421
  L 39.2629 40.0615
  A 0.97 0.97 0.0 0 0 40.2563 41.0075
  L 42.5556 40.9513
  A 0.97 0.97 0.0 0 0 43.5016 39.9579
  L 43.4571 38.1385"
/>
</g>
<path fill="#ffffff" d="
  M 0.00 0.00
  L 59.00 0.00
  L 59.00 52.00
  L 0.00 52.00
  L 0.00 0.00
  Z
  M 36.85 13.19
  Q 37.01 10.73 36.18 8.47
  A 0.73 0.70 80.1 0 0 35.51 7.98
  L 14.43 7.77
  Q 12.57 7.76 12.56 9.67
  L 12.50 42.67
  A 2.93 2.88 68.1 0 1 11.63 44.75
  Q 10.29 46.07 10.88 46.77
  Q 11.24 47.18 12.38 47.21
  Q 15.41 47.29 19.03 47.24
  A 1.27 1.23 -90.0 0 0 20.24 45.99
  L 20.33 40.60
  A 1.25 1.16 -89.1 0 1 21.51 39.37
  L 27.94 39.47
  A 0.80 0.67 80.5 0 1 28.60 40.03
  Q 29.29 42.24 28.93 45.07
  Q 28.64 47.24 30.83 47.25
  Q 39.69 47.30 48.16 47.20
  Q 49.19 47.18 49.55 46.71
  Q 50.16 45.93 48.59 44.87
  A 2.06 1.96 -74.1 0 1 47.72 43.21
  L 47.46 14.57
  A 0.62 0.62 -85.5 0 0 46.95 13.97
  Q 42.16 13.17 37.31 13.64
  A 0.43 0.43 -0.6 0 1 36.85 13.19
  Z
  M 26.8102 41.8598
  A 1.06 1.06 0.0 0 0 25.7651 40.7851
  L 23.6453 40.7555
  A 1.06 1.06 0.0 0 0 22.5706 41.8006
  L 22.5098 46.1602
  A 1.06 1.06 0.0 0 0 23.5549 47.2349
  L 25.6747 47.2645
  A 1.06 1.06 0.0 0 0 26.7494 46.2194
  L 26.8102 41.8598
  Z"
/>
<path fill="#2a71fc" d="
  M 37.31 13.64
  Q 42.16 13.17 46.95 13.97
  A 0.62 0.62 -85.5 0 1 47.46 14.57
  L 47.72 43.21
  A 2.06 1.96 -74.1 0 0 48.59 44.87
  Q 50.16 45.93 49.55 46.71
  Q 49.19 47.18 48.16 47.20
  Q 39.69 47.30 30.83 47.25
  Q 28.64 47.24 28.93 45.07
  Q 29.29 42.24 28.60 40.03
  A 0.80 0.67 80.5 0 0 27.94 39.47
  L 21.51 39.37
  A 1.25 1.16 -89.1 0 0 20.33 40.60
  L 20.24 45.99
  A 1.27 1.23 -90.0 0 1 19.03 47.24
  Q 15.41 47.29 12.38 47.21
  Q 11.24 47.18 10.88 46.77
  Q 10.29 46.07 11.63 44.75
  A 2.93 2.88 68.1 0 0 12.50 42.67
  L 12.56 9.67
  Q 12.57 7.76 14.43 7.77
  L 35.51 7.98
  A 0.73 0.70 80.1 0 1 36.18 8.47
  Q 37.01 10.73 36.85 13.19
  A 0.43 0.43 -0.6 0 0 37.31 13.64
  Z
  M 23.4935 14.4373
  A 0.87 0.87 0.0 0 0 22.6266 13.5643
  L 20.1866 13.5558
  A 0.87 0.87 0.0 0 0 19.3136 14.4227
  L 19.3065 16.4627
  A 0.87 0.87 0.0 0 0 20.1734 17.3357
  L 22.6134 17.3442
  A 0.87 0.87 0.0 0 0 23.4864 16.4773
  L 23.4935 14.4373
  Z
  M 30.19 15.49
  A 2.25 2.25 0.0 0 0 27.94 13.24
  A 2.25 2.25 0.0 0 0 25.69 15.49
  A 2.25 2.25 0.0 0 0 27.94 17.74
  A 2.25 2.25 0.0 0 0 30.19 15.49
  Z
  M 23.5470 20.2914
  A 0.90 0.90 0.0 0 0 22.6692 19.3697
  L 20.2900 19.3115
  A 0.90 0.90 0.0 0 0 19.3682 20.1893
  L 19.3130 22.4486
  A 0.90 0.90 0.0 0 0 20.1908 23.3703
  L 22.5700 23.4285
  A 0.90 0.90 0.0 0 0 23.4918 22.5507
  L 23.5470 20.2914
  Z
  M 30.3127 21.5667
  A 2.38 2.28 4.5 0 0 28.1189 19.1070
  A 2.38 2.28 4.5 0 0 25.5673 21.1933
  A 2.38 2.28 4.5 0 0 27.7611 23.6530
  A 2.38 2.28 4.5 0 0 30.3127 21.5667
  Z
  M 43.46 20.75
  A 1.43 1.43 0.0 0 0 42.03 19.32
  L 40.67 19.32
  A 1.43 1.43 0.0 0 0 39.24 20.75
  L 39.24 22.03
  A 1.43 1.43 0.0 0 0 40.67 23.46
  L 42.03 23.46
  A 1.43 1.43 0.0 0 0 43.46 22.03
  L 43.46 20.75
  Z
  M 23.5028 26.0008
  A 0.78 0.78 0.0 0 0 22.7119 25.2318
  L 20.0722 25.2686
  A 0.78 0.78 0.0 0 0 19.3032 26.0594
  L 19.3372 28.4992
  A 0.78 0.78 0.0 0 0 20.1281 29.2682
  L 22.7678 29.2314
  A 0.78 0.78 0.0 0 0 23.5368 28.4406
  L 23.5028 26.0008
  Z
  M 30.1691 26.5442
  A 1.28 1.28 0.0 0 0 28.9208 25.2333
  L 27.0613 25.1879
  A 1.28 1.28 0.0 0 0 25.7504 26.4362
  L 25.7109 28.0558
  A 1.28 1.28 0.0 0 0 26.9592 29.3667
  L 28.8187 29.4121
  A 1.28 1.28 0.0 0 0 30.1296 28.1638
  L 30.1691 26.5442
  Z
  M 43.4742 26.4933
  A 1.31 1.31 0.0 0 0 42.1193 25.2298
  L 40.3204 25.2926
  A 1.31 1.31 0.0 0 0 39.0569 26.6476
  L 39.1058 28.0467
  A 1.31 1.31 0.0 0 0 40.4607 29.3102
  L 42.2596 29.2474
  A 1.31 1.31 0.0 0 0 43.5231 27.8924
  L 43.4742 26.4933
  Z
  M 23.5010 31.7724
  A 0.56 0.56 0.0 0 0 22.9498 31.2036
  L 19.9702 31.1568
  A 0.56 0.56 0.0 0 0 19.4015 31.7080
  L 19.3590 34.4076
  A 0.56 0.56 0.0 0 0 19.9102 34.9764
  L 22.8898 35.0232
  A 0.56 0.56 0.0 0 0 23.4585 34.4720
  L 23.5010 31.7724
  Z
  M 30.1029 32.2032
  A 1.09 1.09 0.0 0 0 28.9701 31.1578
  L 26.7918 31.2453
  A 1.09 1.09 0.0 0 0 25.7464 32.3782
  L 25.8171 34.1368
  A 1.09 1.09 0.0 0 0 26.9499 35.1822
  L 29.1282 35.0947
  A 1.09 1.09 0.0 0 0 30.1736 33.9618
  L 30.1029 32.2032
  Z
  M 43.48 32.33
  A 1.07 1.07 0.0 0 0 42.41 31.26
  L 40.17 31.26
  A 1.07 1.07 0.0 0 0 39.10 32.33
  L 39.10 33.91
  A 1.07 1.07 0.0 0 0 40.17 34.98
  L 42.41 34.98
  A 1.07 1.07 0.0 0 0 43.48 33.91
  L 43.48 32.33
  Z
  M 43.4571 38.1385
  A 0.97 0.97 0.0 0 0 42.4637 37.1925
  L 40.1644 37.2487
  A 0.97 0.97 0.0 0 0 39.2184 38.2421
  L 39.2629 40.0615
  A 0.97 0.97 0.0 0 0 40.2563 41.0075
  L 42.5556 40.9513
  A 0.97 0.97 0.0 0 0 43.5016 39.9579
  L 43.4571 38.1385
  Z"
/>
<rect fill="#ffffff" x="-2.09" y="-1.89" transform="translate(21.40,15.45) rotate(0.2)" width="4.18" height="3.78" rx="0.87"/>
<circle fill="#ffffff" cx="27.94" cy="15.49" r="2.25"/>
<rect fill="#ffffff" x="-2.09" y="-2.03" transform="translate(21.43,21.37) rotate(1.4)" width="4.18" height="4.06" rx="0.90"/>
<ellipse fill="#ffffff" cx="0.00" cy="0.00" transform="translate(27.94,21.38) rotate(4.5)" rx="2.38" ry="2.28"/>
<rect fill="#ffffff" x="39.24" y="19.32" width="4.22" height="4.14" rx="1.43"/>
<rect fill="#ffffff" x="-2.10" y="-2.00" transform="translate(21.42,27.25) rotate(-0.8)" width="4.20" height="4.00" rx="0.78"/>
<rect fill="#ffffff" x="-2.21" y="-2.09" transform="translate(27.94,27.30) rotate(1.4)" width="4.42" height="4.18" rx="1.28"/>
<rect fill="#ffffff" x="-2.21" y="-2.01" transform="translate(41.29,27.27) rotate(-2.0)" width="4.42" height="4.02" rx="1.31"/>
<rect fill="#ffffff" x="-2.05" y="-1.91" transform="translate(21.43,33.09) rotate(0.9)" width="4.10" height="3.82" rx="0.56"/>
<rect fill="#ffffff" x="-2.18" y="-1.97" transform="translate(27.96,33.17) rotate(-2.3)" width="4.36" height="3.94" rx="1.09"/>
<rect fill="#ffffff" x="39.10" y="31.26" width="4.38" height="3.72" rx="1.07"/>
<rect fill="#ffffff" x="-2.12" y="-1.88" transform="translate(41.36,39.10) rotate(-1.4)" width="4.24" height="3.76" rx="0.97"/>
<rect fill="#2a71fc" x="-2.12" y="-3.24" transform="translate(24.66,44.01) rotate(0.8)" width="4.24" height="6.48" rx="1.06"/>
</svg>
