<?xml version="1.0" standalone="no"?>
<!DOCTYPE svg PUBLIC "-//W3C//DTD SVG 20010904//EN"
 "http://www.w3.org/TR/2001/REC-SVG-20010904/DTD/svg10.dtd">
<svg version="1.0" xmlns="http://www.w3.org/2000/svg"
 width="512.000000pt" height="512.000000pt" viewBox="0 0 512.000000 512.000000"
 preserveAspectRatio="xMidYMid meet">

<g transform="translate(0.000000,512.000000) scale(0.100000,-0.100000)"
fill="#000000" stroke="none">
<path d="M570 5109 c-13 -5 -28 -15 -32 -22 -4 -7 -8 -99 -8 -204 l0 -193
-110 0 c-159 0 -150 15 -150 -258 0 -242 1 -247 65 -254 l30 -3 3 -1211 2
-1211 -59 -22 c-72 -26 -143 -91 -174 -159 -17 -36 -22 -67 -22 -137 -1 -64
-6 -99 -18 -120 -30 -54 -41 -128 -29 -191 11 -55 11 -59 -20 -121 -106 -216
17 -467 265 -538 l57 -16 0 -160 0 -159 -165 0 c-152 0 -167 -2 -185 -20 -26
-26 -25 -62 1 -86 21 -19 77 -19 2539 -19 2462 0 2518 0 2539 19 26 24 27 60
1 86 -18 18 -33 20 -155 20 l-135 0 0 1755 0 1755 58 0 c92 0 92 1 92 221 0
101 -4 189 -8 196 -17 27 -70 33 -298 33 l-234 0 0 174 c0 169 -1 175 -22 190
-33 23 -443 23 -476 0 -21 -15 -22 -21 -22 -190 l0 -174 -130 0 -130 0 0 168
c0 229 21 212 -266 212 -285 0 -264 17 -264 -213 l0 -167 -350 0 -350 0 0 45
c0 40 2 45 23 45 13 0 32 6 43 14 18 13 19 30 22 217 2 112 1 213 -2 225 -14
55 -5 54 -436 54 l-399 0 -3 195 c-3 171 -5 197 -21 212 -15 16 -40 18 -185
21 -91 2 -181 1 -199 -3 -62 -11 -63 -16 -63 -231 l0 -194 -94 0 -95 0 -3 195
c-3 171 -5 197 -21 212 -15 16 -40 18 -200 20 -106 1 -192 -2 -207 -8z m300
-269 l0 -151 -107 3 -108 3 -3 134 c-1 74 0 141 2 148 4 10 33 13 111 13 l105
0 0 -150z m660 0 l0 -150 -105 0 -105 0 0 150 0 150 105 0 105 0 0 -150z m840
-410 l0 -130 -985 0 -985 0 0 130 0 130 985 0 985 0 0 -130z m1140 -215 l0
-125 -135 0 -135 0 0 125 0 125 135 0 135 0 0 -125z m790 0 l0 -125 -140 0
-140 0 0 125 0 125 140 0 140 0 0 -125z m-2022 -82 l3 -43 -40 0 c-44 0 -92
-15 -103 -33 -4 -7 -8 -95 -8 -196 0 -220 0 -221 92 -221 l58 0 0 -1755 0
-1755 -295 0 -294 0 -3 428 -3 427 -27 57 c-31 68 -95 133 -164 168 -42 21
-62 25 -144 25 -78 0 -103 -4 -141 -23 -74 -36 -125 -87 -161 -160 l-33 -67
-3 -427 -3 -428 -254 0 -255 0 0 38 c0 22 -3 93 -6 159 l-7 121 62 18 c123 34
213 112 269 231 23 50 27 71 27 148 0 82 -3 97 -32 156 -31 62 -32 70 -23 120
12 63 1 139 -31 200 -17 34 -20 52 -15 93 9 68 -9 144 -45 199 -32 49 -113
108 -171 127 l-38 12 0 1207 c0 664 3 1211 7 1214 3 4 405 6 892 5 l886 -3 3
-42z m2557 -273 l0 -95 -1290 0 -1290 0 -3 84 c-2 46 -1 90 2 98 5 11 226 13
1293 11 l1288 -3 0 -95z m-157 -1978 l2 -1752 -125 0 -125 0 0 469 c0 508 2
493 -53 506 -12 3 -237 4 -500 3 l-479 -3 -19 -24 c-18 -22 -19 -45 -19 -487
l0 -464 -475 0 -475 0 0 1748 c0 962 3 1752 7 1755 3 4 513 6 1132 5 l1126 -3
3 -1753z m-4142 -287 c56 -33 89 -99 79 -158 -4 -23 -9 -56 -12 -73 -4 -24 2
-41 26 -74 40 -56 48 -113 25 -186 -16 -53 -17 -58 -1 -83 74 -117 86 -199 41
-289 -83 -167 -320 -205 -473 -76 -48 40 -81 116 -80 184 0 66 16 114 54 164
l28 37 -16 53 c-28 87 -21 134 30 208 20 30 24 44 19 70 -18 86 -18 115 3 156
48 94 177 126 277 67z m914 -509 c26 -13 57 -40 75 -65 l30 -43 3 -424 3 -424
-211 0 -211 0 3 423 3 423 27 42 c34 50 65 72 126 88 56 14 92 10 152 -20z
m2380 -531 l0 -425 -170 0 -170 0 0 425 0 425 170 0 170 0 0 -425z m478 3 l-3
-423 -172 -3 -173 -2 0 425 0 425 175 0 175 0 -2 -422z"/>
<path d="M945 3651 c-49 -22 -90 -63 -118 -116 -17 -33 -21 -64 -25 -177 -5
-146 -1 -177 24 -202 22 -22 400 -24 430 -2 17 13 19 29 22 145 4 153 -7 216
-48 276 -58 85 -189 120 -285 76z m164 -132 c33 -31 41 -61 41 -160 l0 -89
-111 0 -111 0 4 104 c3 100 4 106 32 135 25 26 37 31 76 31 33 0 53 -6 69 -21z"/>
<path d="M1623 3645 c-104 -52 -133 -123 -133 -327 0 -190 -16 -178 239 -178
222 0 225 1 237 66 12 64 -1 276 -20 319 -55 127 -200 181 -323 120z m179
-134 c32 -29 32 -30 36 -135 l4 -106 -111 0 -111 0 0 98 c0 76 4 103 17 122
27 39 45 49 90 50 33 0 50 -6 75 -29z"/>
<path d="M953 2934 c-23 -9 -60 -33 -82 -55 -59 -59 -71 -106 -71 -279 0 -196
-13 -184 218 -188 187 -4 212 -1 236 24 21 21 23 317 3 367 -49 116 -183 174
-304 131z m148 -134 c36 -26 49 -72 49 -177 l0 -83 -110 0 -110 0 0 106 0 106
34 34 c41 41 91 46 137 14z"/>
<path d="M1622 2925 c-29 -15 -64 -41 -77 -59 -48 -63 -55 -95 -55 -259 0
-203 -14 -191 214 -195 191 -4 242 5 252 42 3 13 4 93 2 178 -3 152 -3 155
-33 204 -65 105 -195 143 -303 89z m151 -116 c49 -25 57 -47 57 -161 l0 -108
-105 0 -105 0 0 103 c1 65 5 111 14 126 25 45 91 64 139 40z"/>
<path d="M953 2214 c-23 -9 -60 -33 -82 -55 -59 -59 -71 -106 -71 -279 0 -196
-13 -184 218 -188 187 -4 212 -1 236 24 21 21 23 317 3 367 -49 116 -183 174
-304 131z m148 -134 c36 -26 49 -72 49 -177 l0 -83 -110 0 -110 0 0 106 0 106
34 34 c41 41 91 46 137 14z"/>
<path d="M1622 2205 c-29 -15 -64 -41 -77 -59 -48 -63 -55 -95 -55 -259 0
-203 -14 -191 214 -195 191 -4 242 5 252 42 3 13 4 93 2 178 -3 152 -3 155
-33 204 -65 105 -195 143 -303 89z m151 -116 c49 -25 57 -47 57 -161 l0 -108
-105 0 -105 0 0 103 c1 65 5 111 14 126 25 45 91 64 139 40z"/>
<path d="M2705 3365 l-25 -24 0 -231 c0 -217 1 -231 20 -250 18 -18 33 -20
188 -20 159 0 170 1 188 21 18 19 19 39 19 256 0 296 18 273 -207 273 -155 0
-159 -1 -183 -25z m265 -250 l0 -145 -80 0 -80 0 0 145 0 145 80 0 80 0 0
-145z"/>
<path d="M3372 3374 c-22 -15 -22 -18 -22 -258 0 -223 2 -244 18 -259 16 -14
45 -17 190 -17 165 0 171 1 186 22 13 19 16 61 16 255 0 296 17 273 -205 273
-129 0 -165 -3 -183 -16z m258 -259 l0 -145 -80 0 -80 0 0 145 0 145 80 0 80
0 0 -145z"/>
<path d="M4035 3365 l-25 -24 0 -231 c0 -217 1 -231 20 -250 18 -18 33 -20
188 -20 159 0 170 1 188 21 18 19 19 39 19 256 0 296 18 273 -207 273 -155 0
-159 -1 -183 -25z m265 -250 l0 -145 -80 0 -80 0 0 145 0 145 80 0 80 0 0
-145z"/>
<path d="M2705 2605 l-25 -24 0 -231 c0 -217 1 -231 20 -250 18 -18 33 -20
188 -20 159 0 170 1 188 21 18 19 19 39 19 256 0 296 18 273 -207 273 -155 0
-159 -1 -183 -25z m265 -250 l0 -145 -80 0 -80 0 0 145 0 145 80 0 80 0 0
-145z"/>
<path d="M3372 2614 c-22 -15 -22 -18 -22 -258 0 -223 2 -244 18 -259 16 -14
44 -17 185 -17 154 0 169 2 187 20 19 19 20 33 20 255 0 222 -1 236 -20 255
-18 18 -33 20 -183 20 -131 0 -167 -3 -185 -16z m258 -259 l0 -145 -80 0 -80
0 0 145 0 145 80 0 80 0 0 -145z"/>
<path d="M4035 2605 l-25 -24 0 -231 c0 -217 1 -231 20 -250 18 -18 33 -20
188 -20 159 0 170 1 188 21 18 19 19 39 19 256 0 296 18 273 -207 273 -155 0
-159 -1 -183 -25z m265 -250 l0 -145 -80 0 -80 0 0 145 0 145 80 0 80 0 0
-145z"/>
<path d="M2701 1844 c-20 -25 -21 -39 -21 -255 0 -216 1 -230 20 -249 18 -18
33 -20 188 -20 159 0 170 1 188 21 18 19 19 39 19 256 0 297 18 273 -210 273
l-164 0 -20 -26z m269 -249 l0 -145 -80 0 -80 0 0 145 0 145 80 0 80 0 0 -145z"/>
<path d="M3372 1854 c-22 -15 -22 -18 -22 -258 0 -223 2 -244 18 -259 16 -14
44 -17 185 -17 154 0 169 2 187 20 19 19 20 33 20 255 0 222 -1 236 -20 255
-18 18 -33 20 -183 20 -131 0 -167 -3 -185 -16z m258 -259 l0 -145 -80 0 -80
0 0 145 0 145 80 0 80 0 0 -145z"/>
<path d="M4031 1844 c-20 -25 -21 -39 -21 -255 0 -216 1 -230 20 -249 18 -18
33 -20 188 -20 159 0 170 1 188 21 18 19 19 39 19 256 0 297 18 273 -210 273
l-164 0 -20 -26z m269 -249 l0 -145 -80 0 -80 0 0 145 0 145 80 0 80 0 0 -145z"/>
<path d="M2723 1100 c-39 -16 -43 -40 -43 -272 0 -186 3 -227 16 -246 15 -21
21 -22 189 -22 192 0 199 2 210 63 4 18 5 125 3 239 -3 183 -5 209 -21 225
-15 16 -39 18 -175 20 -86 1 -167 -2 -179 -7z m245 -267 l-3 -148 -77 -3 -78
-3 0 151 0 150 80 0 81 0 -3 -147z"/>
</g>
</svg>
