<?xml version="1.0" encoding="UTF-8"?>
<!DOCTYPE svg PUBLIC "-//W3C//DTD SVG 1.1//EN" "http://www.w3.org/Graphics/SVG/1.1/DTD/svg11.dtd">
<svg xmlns="http://www.w3.org/2000/svg" version="1.1" width="512px" height="512px" style="shape-rendering:geometricPrecision; text-rendering:geometricPrecision; image-rendering:optimizeQuality; fill-rule:evenodd; clip-rule:evenodd" xmlns:xlink="http://www.w3.org/1999/xlink">
<g><path style="opacity:0.999" fill="#01b3d7" d="M 190.5,59.5 C 194.612,57.2721 198.612,54.7721 202.5,52C 202.272,51.6012 201.938,51.4346 201.5,51.5C 228.505,25.1115 258.838,20.6115 292.5,38C 352.5,83 412.5,128 472.5,173C 484.522,183.538 492.022,196.704 495,212.5C 495.667,286.833 495.667,361.167 495,435.5C 489.176,464.325 472.343,483.491 444.5,493C 441.529,493.794 438.529,494.461 435.5,495C 408.835,495.5 382.169,495.667 355.5,495.5C 355.667,430.166 355.5,364.832 355,299.5C 353.889,280.44 344.389,267.607 326.5,261C 302.881,259.853 279.215,259.353 255.5,259.5C 231.785,259.353 208.119,259.853 184.5,261C 166.611,267.607 157.111,280.44 156,299.5C 155.5,364.832 155.333,430.166 155.5,495.5C 128.831,495.667 102.165,495.5 75.5,495C 51.2833,490.475 33.4499,477.309 22,455.5C 19.193,449.079 17.193,442.412 16,435.5C 15.3333,361.167 15.3333,286.833 16,212.5C 18.9785,196.704 26.4785,183.538 38.5,173C 89.0439,134.95 139.711,97.1164 190.5,59.5 Z M 278.5,352.5 C 290.308,350.817 297.141,355.817 299,367.5C 299.879,378.55 299.546,389.55 298,400.5C 292.705,410.723 284.872,413.223 274.5,408C 270.618,404.736 268.451,400.57 268,395.5C 267.121,384.45 267.454,373.45 269,362.5C 271.022,357.98 274.189,354.647 278.5,352.5 Z"/></g>
<g><path style="opacity:0.988" fill="#1cad68" d="M 201.5,51.5 C 201.938,51.4346 202.272,51.6012 202.5,52C 198.612,54.7721 194.612,57.2721 190.5,59.5C 193.627,56.1021 197.293,53.4354 201.5,51.5 Z"/></g>
<g><path style="opacity:1" fill="#01b3d7" d="M 192.5,289.5 C 234.501,289.333 276.501,289.5 318.5,290C 319.931,290.465 321.097,291.299 322,292.5C 323.493,360.084 323.993,427.751 323.5,495.5C 278.167,495.5 232.833,495.5 187.5,495.5C 187.333,428.499 187.5,361.499 188,294.5C 189.025,292.313 190.525,290.646 192.5,289.5 Z M 278.5,352.5 C 274.189,354.647 271.022,357.98 269,362.5C 267.454,373.45 267.121,384.45 268,395.5C 268.451,400.57 270.618,404.736 274.5,408C 284.872,413.223 292.705,410.723 298,400.5C 299.546,389.55 299.879,378.55 299,367.5C 297.141,355.817 290.308,350.817 278.5,352.5 Z"/></g>
</svg>
