<?xml version="1.0" encoding="UTF-8" standalone="no"?>
<!DOCTYPE svg PUBLIC "-//W3C//DTD SVG 1.1//EN" "http://www.w3.org/Graphics/SVG/1.1/DTD/svg11.dtd">
<svg xmlns="http://www.w3.org/2000/svg" version="1.1" viewBox="0 0 59 55">
<g stroke-width="2.00" fill="none" stroke-linecap="butt">
<path stroke="#95b9ff" vector-effect="non-scaling-stroke" d="
  M 29.88 30.54
  A 1.09 1.07 89.2 0 1 30.95 31.60
  L 31.31 44.69
  A 0.55 0.49 88.3 0 0 31.81 45.22
  L 38.56 45.11
  A 0.56 0.53 -90.0 0 0 39.08 44.56
  L 39.23 19.80
  A 2.71 2.68 -72.0 0 0 38.13 17.60
  L 26.60 9.25
  A 0.81 0.78 -44.4 0 0 25.68 9.26
  L 14.44 17.30
  Q 12.99 18.33 13.02 19.97
  L 13.41 44.31
  A 0.65 0.65 5.7 0 0 13.92 44.93
  Q 16.53 45.54 20.49 45.08
  A 1.15 1.15 86.6 0 0 21.50 43.94
  L 21.50 31.70
  A 1.16 1.12 -90.0 0 1 22.62 30.54
  L 29.88 30.54"
/>
<path stroke="#95b9ff" vector-effect="non-scaling-stroke" d="
  M 47.35 28.72
  L 43.84 26.75
  A 0.90 0.87 15.0 0 0 42.50 27.49
  L 42.56 44.68
  A 0.56 0.48 89.0 0 0 43.06 45.24
  L 48.19 45.03
  A 0.61 0.56 89.6 0 0 48.73 44.43
  L 48.97 31.18
  Q 49.00 29.65 47.35 28.72"
/>
<path stroke="#8eb0f3" vector-effect="non-scaling-stroke" d="
  M 27.5457 34.4200
  A 0.58 0.58 0.0 0 0 26.9698 33.8359
  L 25.3098 33.8243
  A 0.58 0.58 0.0 0 0 24.7258 34.4003
  L 24.6543 44.6400
  A 0.58 0.58 0.0 0 0 25.2302 45.2241
  L 26.8902 45.2357
  A 0.58 0.58 0.0 0 0 27.4742 44.6597
  L 27.5457 34.4200"
/>
</g>
<path fill="#ffffff" d="
  M 0.00 0.00
  L 59.00 0.00
  L 59.00 55.00
  L 0.00 55.00
  L 0.00 0.00
  Z
  M 29.88 30.54
  A 1.09 1.07 89.2 0 1 30.95 31.60
  L 31.31 44.69
  A 0.55 0.49 88.3 0 0 31.81 45.22
  L 38.56 45.11
  A 0.56 0.53 -90.0 0 0 39.08 44.56
  L 39.23 19.80
  A 2.71 2.68 -72.0 0 0 38.13 17.60
  L 26.60 9.25
  A 0.81 0.78 -44.4 0 0 25.68 9.26
  L 14.44 17.30
  Q 12.99 18.33 13.02 19.97
  L 13.41 44.31
  A 0.65 0.65 5.7 0 0 13.92 44.93
  Q 16.53 45.54 20.49 45.08
  A 1.15 1.15 86.6 0 0 21.50 43.94
  L 21.50 31.70
  A 1.16 1.12 -90.0 0 1 22.62 30.54
  L 29.88 30.54
  Z
  M 47.35 28.72
  L 43.84 26.75
  A 0.90 0.87 15.0 0 0 42.50 27.49
  L 42.56 44.68
  A 0.56 0.48 89.0 0 0 43.06 45.24
  L 48.19 45.03
  A 0.61 0.56 89.6 0 0 48.73 44.43
  L 48.97 31.18
  Q 49.00 29.65 47.35 28.72
  Z
  M 27.5457 34.4200
  A 0.58 0.58 0.0 0 0 26.9698 33.8359
  L 25.3098 33.8243
  A 0.58 0.58 0.0 0 0 24.7258 34.4003
  L 24.6543 44.6400
  A 0.58 0.58 0.0 0 0 25.2302 45.2241
  L 26.8902 45.2357
  A 0.58 0.58 0.0 0 0 27.4742 44.6597
  L 27.5457 34.4200
  Z"
/>
<path fill="#2a72fe" d="
  M 29.88 30.54
  L 22.62 30.54
  A 1.16 1.12 90.0 0 0 21.50 31.70
  L 21.50 43.94
  A 1.15 1.15 86.6 0 1 20.49 45.08
  Q 16.53 45.54 13.92 44.93
  A 0.65 0.65 5.7 0 1 13.41 44.31
  L 13.02 19.97
  Q 12.99 18.33 14.44 17.30
  L 25.68 9.26
  A 0.81 0.78 -44.4 0 1 26.60 9.25
  L 38.13 17.60
  A 2.71 2.68 -72.0 0 1 39.23 19.80
  L 39.08 44.56
  A 0.56 0.53 -90.0 0 1 38.56 45.11
  L 31.81 45.22
  A 0.55 0.49 88.3 0 1 31.31 44.69
  L 30.95 31.60
  A 1.09 1.07 89.2 0 0 29.88 30.54
  Z"
/>
<path fill="#2a72fe" d="
  M 47.35 28.72
  Q 49.00 29.65 48.97 31.18
  L 48.73 44.43
  A 0.61 0.56 89.6 0 1 48.19 45.03
  L 43.06 45.24
  A 0.56 0.48 89.0 0 1 42.56 44.68
  L 42.50 27.49
  A 0.90 0.87 15.0 0 1 43.84 26.75
  L 47.35 28.72
  Z"
/>
<rect fill="#1d60e6" x="-1.41" y="-5.70" transform="translate(26.10,39.53) rotate(0.4)" width="2.82" height="11.40" rx="0.58"/>
</svg>
