<?xml version="1.0" encoding="UTF-8"?>
<!DOCTYPE svg PUBLIC "-//W3C//DTD SVG 1.1//EN" "http://www.w3.org/Graphics/SVG/1.1/DTD/svg11.dtd">
<svg xmlns="http://www.w3.org/2000/svg" version="1.1" width="512px" height="512px" style="shape-rendering:geometricPrecision; text-rendering:geometricPrecision; image-rendering:optimizeQuality; fill-rule:evenodd; clip-rule:evenodd" xmlns:xlink="http://www.w3.org/1999/xlink">
<g><path style="opacity:0.994" fill="#02b3d6" d="M 309.5,511.5 C 278.833,511.5 248.167,511.5 217.5,511.5C 217.667,471.832 217.5,432.165 217,392.5C 212.968,375.803 202.468,365.969 185.5,363C 164.5,362.333 143.5,362.333 122.5,363C 104.881,366.952 94.381,377.785 91,395.5C 90.5,434.165 90.3333,472.832 90.5,511.5C 65.1667,511.5 39.8333,511.5 14.5,511.5C 7.16667,508.833 2.16667,503.833 -0.5,496.5C -0.5,341.5 -0.5,186.5 -0.5,31.5C 5.61068,13.8326 18.1107,4.1659 37,2.5C 117.507,14.6123 198.007,26.779 278.5,39C 295.564,43.3967 305.731,54.2301 309,71.5C 309.5,218.166 309.667,364.833 309.5,511.5 Z M 81.5,90.5 C 95.24,90.0542 108.907,90.5542 122.5,92C 130.984,96.4699 133.817,103.303 131,112.5C 128.778,116.388 125.612,119.221 121.5,121C 107.833,121.667 94.1667,121.667 80.5,121C 69.9001,115.968 67.0668,108.135 72,97.5C 74.529,94.1151 77.6956,91.7818 81.5,90.5 Z M 188.5,90.5 C 202.24,90.0542 215.907,90.5542 229.5,92C 237.361,96.2359 240.195,102.736 238,111.5C 236.073,116.428 232.573,119.594 227.5,121C 213.098,121.948 198.765,121.615 184.5,120C 176.537,114.714 174.37,107.547 178,98.5C 180.855,94.7893 184.355,92.1226 188.5,90.5 Z M 81.5,154.5 C 95.24,154.054 108.907,154.554 122.5,156C 130.984,160.47 133.817,167.303 131,176.5C 128.778,180.388 125.612,183.221 121.5,185C 107.833,185.667 94.1667,185.667 80.5,185C 69.9001,179.968 67.0668,172.135 72,161.5C 74.529,158.115 77.6956,155.782 81.5,154.5 Z M 188.5,154.5 C 202.24,154.054 215.907,154.554 229.5,156C 237.361,160.236 240.195,166.736 238,175.5C 236.073,180.428 232.573,183.594 227.5,185C 213.098,185.948 198.765,185.615 184.5,184C 176.537,178.714 174.37,171.547 178,162.5C 180.855,158.789 184.355,156.123 188.5,154.5 Z M 81.5,218.5 C 95.24,218.054 108.907,218.554 122.5,220C 130.984,224.47 133.817,231.303 131,240.5C 128.778,244.388 125.612,247.221 121.5,249C 107.833,249.667 94.1667,249.667 80.5,249C 69.9001,243.968 67.0668,236.135 72,225.5C 74.529,222.115 77.6956,219.782 81.5,218.5 Z M 188.5,218.5 C 202.24,218.054 215.907,218.554 229.5,220C 237.361,224.236 240.195,230.736 238,239.5C 236.073,244.428 232.573,247.594 227.5,249C 213.098,249.948 198.765,249.615 184.5,248C 176.537,242.714 174.37,235.547 178,226.5C 180.855,222.789 184.355,220.123 188.5,218.5 Z M 81.5,282.5 C 95.24,282.054 108.907,282.554 122.5,284C 130.984,288.47 133.817,295.303 131,304.5C 128.778,308.388 125.612,311.221 121.5,313C 107.833,313.667 94.1667,313.667 80.5,313C 69.9001,307.968 67.0668,300.135 72,289.5C 74.529,286.115 77.6956,283.782 81.5,282.5 Z M 188.5,282.5 C 202.24,282.054 215.907,282.554 229.5,284C 237.361,288.236 240.195,294.736 238,303.5C 236.073,308.428 232.573,311.594 227.5,313C 213.098,313.948 198.765,313.615 184.5,312C 176.537,306.714 174.37,299.547 178,290.5C 180.855,286.789 184.355,284.123 188.5,282.5 Z"/></g>
<g><path style="opacity:0.995" fill="#02b3d6" d="M 511.5,258.5 C 511.5,333.167 511.5,407.833 511.5,482.5C 507.167,497.5 497.5,507.167 482.5,511.5C 431.5,511.5 380.5,511.5 329.5,511.5C 329.5,407.167 329.5,302.833 329.5,198.5C 381.527,209.139 433.527,219.972 485.5,231C 498.856,235.853 507.523,245.02 511.5,258.5 Z M 399.5,287.5 C 410.172,287.333 420.839,287.5 431.5,288C 445.344,291.187 449.51,299.354 444,312.5C 440.736,316.382 436.57,318.549 431.5,319C 420.833,319.667 410.167,319.667 399.5,319C 387.657,317.153 382.824,310.32 385,298.5C 387.821,292.023 392.655,288.356 399.5,287.5 Z M 399.5,351.5 C 410.172,351.333 420.839,351.5 431.5,352C 445.344,355.187 449.51,363.354 444,376.5C 440.736,380.382 436.57,382.549 431.5,383C 420.833,383.667 410.167,383.667 399.5,383C 387.657,381.153 382.824,374.32 385,362.5C 387.821,356.023 392.655,352.356 399.5,351.5 Z M 399.5,415.5 C 410.172,415.333 420.839,415.5 431.5,416C 445.344,419.187 449.51,427.354 444,440.5C 440.736,444.382 436.57,446.549 431.5,447C 420.833,447.667 410.167,447.667 399.5,447C 387.657,445.153 382.824,438.32 385,426.5C 387.821,420.023 392.655,416.356 399.5,415.5 Z"/></g>
</svg>
