<?xml version="1.0" encoding="UTF-8"?>
<!DOCTYPE svg PUBLIC "-//W3C//DTD SVG 1.1//EN" "http://www.w3.org/Graphics/SVG/1.1/DTD/svg11.dtd">
<svg xmlns="http://www.w3.org/2000/svg" version="1.1" width="512px" height="512px" style="shape-rendering:geometricPrecision; text-rendering:geometricPrecision; image-rendering:optimizeQuality; fill-rule:evenodd; clip-rule:evenodd" xmlns:xlink="http://www.w3.org/1999/xlink">
<g><path style="opacity:1" fill="#02b3d7" d="M 490.5,-0.5 C 494.5,-0.5 498.5,-0.5 502.5,-0.5C 506.5,1.5 509.5,4.5 511.5,8.5C 511.5,105.833 511.5,203.167 511.5,300.5C 343.833,300.667 176.166,300.5 8.5,300C 4.31481,298.312 1.31481,295.479 -0.5,291.5C -0.5,257.5 -0.5,223.5 -0.5,189.5C 1.31481,185.521 4.31481,182.688 8.5,181C 85.4993,180.5 162.499,180.333 239.5,180.5C 239.833,156.158 239.5,131.824 238.5,107.5C 225.869,111.432 213.202,115.266 200.5,119C 184.333,121.5 177.5,114.667 180,98.5C 181.5,94.3333 184.333,91.5 188.5,90C 289.376,60.1199 390.043,29.9532 490.5,-0.5 Z M 435.5,89.5 C 444.782,90.2823 449.949,95.2823 451,104.5C 451.667,144.833 451.667,185.167 451,225.5C 450.167,234.333 445.333,239.167 436.5,240C 396.5,240.667 356.5,240.667 316.5,240C 307.667,239.167 302.833,234.333 302,225.5C 301.333,195.167 301.333,164.833 302,134.5C 302.587,126.58 306.753,121.747 314.5,120C 355.054,110.261 395.387,100.095 435.5,89.5 Z M 29.5,210.5 C 39.5,210.5 49.5,210.5 59.5,210.5C 59.5,230.5 59.5,250.5 59.5,270.5C 49.5,270.5 39.5,270.5 29.5,270.5C 29.5,250.5 29.5,230.5 29.5,210.5 Z M 89.5,210.5 C 99.5,210.5 109.5,210.5 119.5,210.5C 119.5,230.5 119.5,250.5 119.5,270.5C 109.5,270.5 99.5,270.5 89.5,270.5C 89.5,250.5 89.5,230.5 89.5,210.5 Z M 149.5,210.5 C 159.5,210.5 169.5,210.5 179.5,210.5C 179.5,230.5 179.5,250.5 179.5,270.5C 169.5,270.5 159.5,270.5 149.5,270.5C 149.5,250.5 149.5,230.5 149.5,210.5 Z M 209.5,210.5 C 219.5,210.5 229.5,210.5 239.5,210.5C 239.5,230.5 239.5,250.5 239.5,270.5C 229.5,270.5 219.5,270.5 209.5,270.5C 209.5,250.5 209.5,230.5 209.5,210.5 Z"/></g>
<g><path style="opacity:0.998" fill="#01b3d6" d="M 418.5,123.5 C 419.5,123.5 420.5,123.5 421.5,123.5C 421.5,152.5 421.5,181.5 421.5,210.5C 391.5,210.5 361.5,210.5 331.5,210.5C 331.5,188.833 331.5,167.167 331.5,145.5C 360.725,138.611 389.725,131.277 418.5,123.5 Z"/></g>
<g><path style="opacity:1" fill="#00b3d7" d="M 331.5,511.5 C 310.833,511.5 290.167,511.5 269.5,511.5C 269.975,464.461 269.475,417.461 268,370.5C 265.538,364.513 261.038,361.346 254.5,361C 214.5,360.333 174.5,360.333 134.5,361C 127.962,361.346 123.462,364.513 121,370.5C 119.525,417.461 119.025,464.461 119.5,511.5C 82.5,511.5 45.5,511.5 8.5,511.5C 7.01307,510.196 5.3464,509.03 3.5,508C 2.30342,505.985 0.970083,504.151 -0.5,502.5C -0.5,498.5 -0.5,494.5 -0.5,490.5C 1.31481,486.521 4.31481,483.688 8.5,482C 25.4967,481.5 42.4967,481.333 59.5,481.5C 59.5,431.167 59.5,380.833 59.5,330.5C 150.167,330.5 240.833,330.5 331.5,330.5C 331.5,390.833 331.5,451.167 331.5,511.5 Z"/></g>
<g><path style="opacity:1" fill="#00b4d8" d="M 391.5,511.5 C 381.5,511.5 371.5,511.5 361.5,511.5C 361.5,451.167 361.5,390.833 361.5,330.5C 371.5,330.5 381.5,330.5 391.5,330.5C 391.5,390.833 391.5,451.167 391.5,511.5 Z"/></g>
<g><path style="opacity:1" fill="#00b4d8" d="M 451.5,511.5 C 441.5,511.5 431.5,511.5 421.5,511.5C 421.5,451.167 421.5,390.833 421.5,330.5C 431.5,330.5 441.5,330.5 451.5,330.5C 451.5,390.833 451.5,451.167 451.5,511.5 Z"/></g>
<g><path style="opacity:1" fill="#01b3d7" d="M 511.5,330.5 C 511.5,387.833 511.5,445.167 511.5,502.5C 510.196,503.987 509.03,505.654 508,507.5C 505.985,508.697 504.151,510.03 502.5,511.5C 495.5,511.5 488.5,511.5 481.5,511.5C 481.5,451.167 481.5,390.833 481.5,330.5C 491.5,330.5 501.5,330.5 511.5,330.5 Z"/></g>
<g><path style="opacity:1" fill="#01b3d7" d="M 239.5,511.5 C 209.5,511.5 179.5,511.5 149.5,511.5C 149.5,471.167 149.5,430.833 149.5,390.5C 179.5,390.5 209.5,390.5 239.5,390.5C 239.5,400.5 239.5,410.5 239.5,420.5C 231.17,419.751 223.17,420.918 215.5,424C 210.376,429.374 209.209,435.54 212,442.5C 214.887,447.039 219.053,449.539 224.5,450C 229.489,450.499 234.489,450.666 239.5,450.5C 239.5,470.833 239.5,491.167 239.5,511.5 Z"/></g>
</svg>
