<?xml version="1.0" standalone="no"?>
<!DOCTYPE svg PUBLIC "-//W3C//DTD SVG 20010904//EN"
 "http://www.w3.org/TR/2001/REC-SVG-20010904/DTD/svg10.dtd">
<svg version="1.0" xmlns="http://www.w3.org/2000/svg"
 width="512.000000pt" height="512.000000pt" viewBox="0 0 512.000000 512.000000"
 preserveAspectRatio="xMidYMid meet">

<g transform="translate(0.000000,512.000000) scale(0.100000,-0.100000)"
fill="#000000" stroke="none">
<path d="M1878 4244 c-233 -174 -435 -328 -450 -342 l-28 -26 0 -218 0 -218
-155 0 -155 0 0 95 c0 104 -10 137 -47 154 -37 17 -62 13 -88 -14 l-25 -24 0
-826 0 -825 -230 0 -230 0 0 95 c0 104 -10 137 -47 154 -37 17 -62 13 -88 -14
l-25 -24 0 -746 0 -745 -130 0 c-126 0 -132 -1 -155 -25 -33 -32 -33 -78 0
-110 l24 -25 2511 0 2511 0 24 25 c33 32 33 78 0 110 -23 24 -29 25 -155 25
l-130 0 0 745 0 746 -25 24 c-26 27 -51 31 -88 14 -37 -17 -47 -50 -47 -154
l0 -95 -230 0 -230 0 0 805 c0 877 1 857 -55 871 -74 18 -105 -28 -105 -156
l0 -80 -155 0 -154 0 -3 63 -3 62 -141 105 c-251 186 -1156 844 -1193 867 -20
13 -46 23 -58 23 -14 0 -185 -121 -445 -316z m1072 -315 l620 -451 0 -739 0
-739 -1010 0 -1010 0 0 899 0 898 388 291 c213 161 388 292 390 292 1 0 281
-203 622 -451z m-1554 -680 c-3 -17 -6 -40 -6 -50 0 -18 -10 -19 -150 -19
l-150 0 0 50 0 50 156 0 157 0 -7 -31z m2634 -19 l0 -50 -155 0 -155 0 0 50 0
50 155 0 155 0 0 -50z m-2634 -207 c-3 -21 -6 -48 -6 -60 0 -23 -1 -23 -150
-23 l-150 0 0 60 0 60 156 0 157 0 -7 -37z m2634 -23 l0 -60 -155 0 -155 0 0
60 0 60 155 0 155 0 0 -60z m-2634 -217 c-3 -21 -6 -48 -6 -60 0 -23 -1 -23
-150 -23 l-150 0 0 60 0 60 156 0 157 0 -7 -37z m2634 -23 l0 -60 -155 0 -155
0 0 60 0 60 155 0 155 0 0 -60z m-2640 -240 l0 -60 -150 0 c-149 0 -150 0
-150 23 0 12 -3 39 -6 60 l-7 37 157 0 156 0 0 -60z m2640 0 l0 -60 -155 0
-155 0 0 60 0 60 155 0 155 0 0 -60z m-2640 -240 l0 -60 -150 0 c-149 0 -150
0 -150 23 0 12 -3 39 -6 60 l-7 37 157 0 156 0 0 -60z m2640 0 l0 -60 -155 0
-155 0 0 60 0 60 155 0 155 0 0 -60z m-2640 -230 l0 -50 -150 0 c-140 0 -150
1 -150 19 0 10 -3 33 -6 50 l-6 31 156 0 156 0 0 -50z m2640 0 l0 -50 -155 0
-155 0 0 50 0 50 155 0 155 0 0 -50z m-2870 -770 l0 -560 -345 0 -345 0 0 560
0 560 345 0 345 0 0 -560z m1010 0 l0 -560 -425 0 -425 0 0 560 0 560 425 0
425 0 0 -560z m2480 320 l0 -240 -824 0 c-818 0 -823 0 -850 -21 -37 -29 -37
-89 0 -118 27 -21 32 -21 850 -21 l824 0 0 -240 0 -240 -1160 0 -1160 0 0 560
0 560 1160 0 1160 0 0 -240z"/>
<path d="M1747 3402 c-15 -16 -17 -54 -17 -324 0 -283 1 -306 18 -321 16 -15
53 -17 308 -17 159 0 294 4 300 8 30 20 34 55 34 332 0 277 -4 312 -34 332 -6
4 -142 8 -302 8 -269 0 -292 -1 -307 -18z m523 -322 l0 -220 -215 0 -215 0 0
220 0 220 215 0 215 0 0 -220z"/>
<path d="M2520 2680 c-19 -19 -20 -33 -20 -200 0 -237 -16 -220 215 -220 231
0 215 -17 215 220 0 237 16 220 -215 220 -162 0 -177 -2 -195 -20z m290 -200
l0 -100 -95 0 -95 0 0 100 0 100 95 0 95 0 0 -100z"/>
</g>
</svg>
