<?xml version="1.0" encoding="UTF-8" standalone="no"?>
<!DOCTYPE svg PUBLIC "-//W3C//DTD SVG 1.1//EN" "http://www.w3.org/Graphics/SVG/1.1/DTD/svg11.dtd">
<svg xmlns="http://www.w3.org/2000/svg" version="1.1" viewBox="0 0 66 50">
<g stroke-width="2.00" fill="none" stroke-linecap="butt">
<path stroke="#94b7fa" vector-effect="non-scaling-stroke" d="
  M 29.23 12.11
  L 29.24 15.83
  A 0.69 0.66 -0.4 0 1 28.56 16.49
  L 12.28 16.74
  A 1.54 1.41 -2.2 0 0 10.76 18.24
  L 11.16 24.76
  A 0.62 0.54 -0.9 0 0 11.76 25.27
  L 49.31 25.57
  A 0.55 0.54 -87.7 0 0 49.85 25.06
  Q 50.74 13.96 49.98 3.40
  A 0.78 0.77 79.6 0 0 48.99 2.70
  L 25.29 9.90
  A 0.66 0.61 -11.9 0 0 24.82 10.56
  Q 25.01 12.48 27.82 11.25
  A 1.01 0.96 -12.4 0 1 29.23 12.11"
/>
<path stroke="#94b7fa" vector-effect="non-scaling-stroke" d="
  M 31.15 30.76
  Q 31.88 32.46 31.71 34.27
  Q 31.49 36.69 31.50 36.74
  Q 31.54 38.74 31.90 41.37
  A 0.80 0.79 1.0 0 0 32.55 42.04
  Q 35.38 42.54 36.07 41.37
  Q 36.25 41.06 36.25 38.58
  Q 36.25 34.06 36.25 28.88
  A 0.90 0.90 -1.5 0 0 35.30 27.98
  Q 26.50 28.48 16.69 27.93
  A 1.07 1.07 2.3 0 0 15.55 28.98
  L 15.44 38.68
  A 0.71 0.67 82.4 0 1 14.96 39.35
  Q 14.17 39.58 13.35 39.57
  Q 12.12 39.56 11.68 39.74
  Q 10.26 40.32 11.45 41.59
  A 1.24 1.13 -19.8 0 0 12.32 41.95
  L 19.13 42.00
  A 1.14 1.11 -89.8 0 0 20.25 40.86
  L 20.25 31.33
  A 1.08 1.06 -90.0 0 1 21.31 30.25
  L 30.44 30.30
  A 0.78 0.76 -11.5 0 1 31.15 30.76"
/>
<path stroke="#86a8eb" vector-effect="non-scaling-stroke" d="
  M 40.7117 28.8934
  A 0.89 0.89 0.0 0 0 39.8248 28.0003
  L 39.6648 27.9998
  A 0.89 0.89 0.0 0 0 38.7717 28.8867
  L 38.7283 41.3266
  A 0.89 0.89 0.0 0 0 39.6152 42.2197
  L 39.7752 42.2202
  A 0.89 0.89 0.0 0 0 40.6683 41.3333
  L 40.7117 28.8934"
/>
<path stroke="#86a8eb" vector-effect="non-scaling-stroke" d="
  M 45.49 28.80
  A 0.79 0.79 0.0 0 0 44.70 28.01
  L 44.28 28.01
  A 0.79 0.79 0.0 0 0 43.49 28.80
  L 43.49 41.40
  A 0.79 0.79 0.0 0 0 44.28 42.19
  L 44.70 42.19
  A 0.79 0.79 0.0 0 0 45.49 41.40
  L 45.49 28.80"
/>
<path stroke="#86a8eb" vector-effect="non-scaling-stroke" d="
  M 50.0029 29.0198
  A 1.01 1.01 0.0 0 0 49.0018 28.0011
  L 48.8218 27.9995
  A 1.01 1.01 0.0 0 0 47.8030 29.0006
  L 47.6971 41.1402
  A 1.01 1.01 0.0 0 0 48.6982 42.1589
  L 48.8782 42.1605
  A 1.01 1.01 0.0 0 0 49.8970 41.1594
  L 50.0029 29.0198"
/>
<path stroke="#94b7fa" vector-effect="non-scaling-stroke" d="
  M 27.94 35.38
  Q 30.49 34.65 28.79 32.90
  A 1.23 1.05 64.7 0 0 27.94 32.52
  L 23.18 32.63
  A 0.56 0.54 89.5 0 0 22.65 33.19
  L 22.54 41.28
  A 1.01 0.96 0.3 0 0 23.55 42.25
  L 27.73 42.25
  A 1.20 1.18 7.6 0 0 28.88 41.38
  Q 29.81 37.95 27.78 36.84
  Q 26.09 35.91 27.94 35.38"
/>
<path stroke="#94b7fa" vector-effect="non-scaling-stroke" d="
  M 35.53 21.05
  L 44.54 21.16
  A 0.95 0.90 0.3 0 0 45.50 20.26
  L 45.50 10.23
  A 0.72 0.69 83.4 0 0 44.64 9.52
  L 35.03 11.92
  A 0.85 0.75 -89.2 0 0 34.45 12.56
  Q 33.75 15.93 34.38 20.10
  A 1.18 1.11 -3.7 0 0 35.53 21.05"
/>
<path stroke="#94b7fa" vector-effect="non-scaling-stroke" d="
  M 15.4985 19.3663
  A 0.87 0.87 0.0 0 0 14.6180 18.5070
  L 14.0980 18.5134
  A 0.87 0.87 0.0 0 0 13.2387 19.3939
  L 13.2815 22.8937
  A 0.87 0.87 0.0 0 0 14.1620 23.7530
  L 14.6820 23.7466
  A 0.87 0.87 0.0 0 0 15.5413 22.8661
  L 15.4985 19.3663"
/>
<path stroke="#94b7fa" vector-effect="non-scaling-stroke" d="
  M 20.2799 19.4654
  A 0.98 0.98 0.0 0 0 19.3120 18.4735
  L 18.7720 18.4669
  A 0.98 0.98 0.0 0 0 17.7801 19.4349
  L 17.7401 22.7146
  A 0.98 0.98 0.0 0 0 18.7080 23.7065
  L 19.2480 23.7131
  A 0.98 0.98 0.0 0 0 20.2399 22.7451
  L 20.2799 19.4654"
/>
<path stroke="#94b7fa" vector-effect="non-scaling-stroke" d="
  M 24.6631 19.3686
  A 0.81 0.81 0.0 0 0 23.8732 18.5391
  L 23.1934 18.5225
  A 0.81 0.81 0.0 0 0 22.3638 19.3124
  L 22.2769 22.8714
  A 0.81 0.81 0.0 0 0 23.0668 23.7009
  L 23.7466 23.7175
  A 0.81 0.81 0.0 0 0 24.5762 22.9276
  L 24.6631 19.3686"
/>
<path stroke="#94b7fa" vector-effect="non-scaling-stroke" d="
  M 28.0940 23.8300
  A 2.67 1.28 89.7 0 0 29.3600 21.1533
  A 2.67 1.28 89.7 0 0 28.0660 18.4900
  A 2.67 1.28 89.7 0 0 26.8000 21.1667
  A 2.67 1.28 89.7 0 0 28.0940 23.8300"
/>
<path stroke="#94b7fa" vector-effect="non-scaling-stroke" d="
  M 41.56 19.03
  Q 43.45 19.15 43.38 17.06
  Q 43.32 15.14 43.32 14.93
  Q 43.33 13.84 43.07 12.79
  A 0.55 0.50 76.2 0 0 42.45 12.38
  L 37.29 13.65
  A 1.08 0.92 -82.7 0 0 36.61 14.27
  Q 34.59 19.26 39.31 18.95
  Q 39.80 18.91 41.56 19.03"
/>
</g>
<path fill="#ffffff" d="
  M 0.00 0.00
  L 66.00 0.00
  L 66.00 50.00
  L 0.00 50.00
  L 0.00 0.00
  Z
  M 29.23 12.11
  L 29.24 15.83
  A 0.69 0.66 -0.4 0 1 28.56 16.49
  L 12.28 16.74
  A 1.54 1.41 -2.2 0 0 10.76 18.24
  L 11.16 24.76
  A 0.62 0.54 -0.9 0 0 11.76 25.27
  L 49.31 25.57
  A 0.55 0.54 -87.7 0 0 49.85 25.06
  Q 50.74 13.96 49.98 3.40
  A 0.78 0.77 79.6 0 0 48.99 2.70
  L 25.29 9.90
  A 0.66 0.61 -11.9 0 0 24.82 10.56
  Q 25.01 12.48 27.82 11.25
  A 1.01 0.96 -12.4 0 1 29.23 12.11
  Z
  M 31.15 30.76
  Q 31.88 32.46 31.71 34.27
  Q 31.49 36.69 31.50 36.74
  Q 31.54 38.74 31.90 41.37
  A 0.80 0.79 1.0 0 0 32.55 42.04
  Q 35.38 42.54 36.07 41.37
  Q 36.25 41.06 36.25 38.58
  Q 36.25 34.06 36.25 28.88
  A 0.90 0.90 -1.5 0 0 35.30 27.98
  Q 26.50 28.48 16.69 27.93
  A 1.07 1.07 2.3 0 0 15.55 28.98
  L 15.44 38.68
  A 0.71 0.67 82.4 0 1 14.96 39.35
  Q 14.17 39.58 13.35 39.57
  Q 12.12 39.56 11.68 39.74
  Q 10.26 40.32 11.45 41.59
  A 1.24 1.13 -19.8 0 0 12.32 41.95
  L 19.13 42.00
  A 1.14 1.11 -89.8 0 0 20.25 40.86
  L 20.25 31.33
  A 1.08 1.06 -90.0 0 1 21.31 30.25
  L 30.44 30.30
  A 0.78 0.76 -11.5 0 1 31.15 30.76
  Z
  M 40.7117 28.8934
  A 0.89 0.89 0.0 0 0 39.8248 28.0003
  L 39.6648 27.9998
  A 0.89 0.89 0.0 0 0 38.7717 28.8867
  L 38.7283 41.3266
  A 0.89 0.89 0.0 0 0 39.6152 42.2197
  L 39.7752 42.2202
  A 0.89 0.89 0.0 0 0 40.6683 41.3333
  L 40.7117 28.8934
  Z
  M 45.49 28.80
  A 0.79 0.79 0.0 0 0 44.70 28.01
  L 44.28 28.01
  A 0.79 0.79 0.0 0 0 43.49 28.80
  L 43.49 41.40
  A 0.79 0.79 0.0 0 0 44.28 42.19
  L 44.70 42.19
  A 0.79 0.79 0.0 0 0 45.49 41.40
  L 45.49 28.80
  Z
  M 50.0029 29.0198
  A 1.01 1.01 0.0 0 0 49.0018 28.0011
  L 48.8218 27.9995
  A 1.01 1.01 0.0 0 0 47.8030 29.0006
  L 47.6971 41.1402
  A 1.01 1.01 0.0 0 0 48.6982 42.1589
  L 48.8782 42.1605
  A 1.01 1.01 0.0 0 0 49.8970 41.1594
  L 50.0029 29.0198
  Z
  M 27.94 35.38
  Q 30.49 34.65 28.79 32.90
  A 1.23 1.05 64.7 0 0 27.94 32.52
  L 23.18 32.63
  A 0.56 0.54 89.5 0 0 22.65 33.19
  L 22.54 41.28
  A 1.01 0.96 0.3 0 0 23.55 42.25
  L 27.73 42.25
  A 1.20 1.18 7.6 0 0 28.88 41.38
  Q 29.81 37.95 27.78 36.84
  Q 26.09 35.91 27.94 35.38
  Z"
/>
<path fill="#286ff5" d="
  M 29.23 12.11
  A 1.01 0.96 -12.4 0 0 27.82 11.25
  Q 25.01 12.48 24.82 10.56
  A 0.66 0.61 -11.9 0 1 25.29 9.90
  L 48.99 2.70
  A 0.78 0.77 79.6 0 1 49.98 3.40
  Q 50.74 13.96 49.85 25.06
  A 0.55 0.54 -87.7 0 1 49.31 25.57
  L 11.76 25.27
  A 0.62 0.54 -0.9 0 1 11.16 24.76
  L 10.76 18.24
  A 1.54 1.41 -2.2 0 1 12.28 16.74
  L 28.56 16.49
  A 0.69 0.66 -0.4 0 0 29.24 15.83
  L 29.23 12.11
  Z
  M 35.53 21.05
  L 44.54 21.16
  A 0.95 0.90 0.3 0 0 45.50 20.26
  L 45.50 10.23
  A 0.72 0.69 83.4 0 0 44.64 9.52
  L 35.03 11.92
  A 0.85 0.75 -89.2 0 0 34.45 12.56
  Q 33.75 15.93 34.38 20.10
  A 1.18 1.11 -3.7 0 0 35.53 21.05
  Z
  M 15.4985 19.3663
  A 0.87 0.87 0.0 0 0 14.6180 18.5070
  L 14.0980 18.5134
  A 0.87 0.87 0.0 0 0 13.2387 19.3939
  L 13.2815 22.8937
  A 0.87 0.87 0.0 0 0 14.1620 23.7530
  L 14.6820 23.7466
  A 0.87 0.87 0.0 0 0 15.5413 22.8661
  L 15.4985 19.3663
  Z
  M 20.2799 19.4654
  A 0.98 0.98 0.0 0 0 19.3120 18.4735
  L 18.7720 18.4669
  A 0.98 0.98 0.0 0 0 17.7801 19.4349
  L 17.7401 22.7146
  A 0.98 0.98 0.0 0 0 18.7080 23.7065
  L 19.2480 23.7131
  A 0.98 0.98 0.0 0 0 20.2399 22.7451
  L 20.2799 19.4654
  Z
  M 24.6631 19.3686
  A 0.81 0.81 0.0 0 0 23.8732 18.5391
  L 23.1934 18.5225
  A 0.81 0.81 0.0 0 0 22.3638 19.3124
  L 22.2769 22.8714
  A 0.81 0.81 0.0 0 0 23.0668 23.7009
  L 23.7466 23.7175
  A 0.81 0.81 0.0 0 0 24.5762 22.9276
  L 24.6631 19.3686
  Z
  M 28.0940 23.8300
  A 2.67 1.28 89.7 0 0 29.3600 21.1533
  A 2.67 1.28 89.7 0 0 28.0660 18.4900
  A 2.67 1.28 89.7 0 0 26.8000 21.1667
  A 2.67 1.28 89.7 0 0 28.0940 23.8300
  Z"
/>
<path fill="#ffffff" d="
  M 35.53 21.05
  A 1.18 1.11 -3.7 0 1 34.38 20.10
  Q 33.75 15.93 34.45 12.56
  A 0.85 0.75 -89.2 0 1 35.03 11.92
  L 44.64 9.52
  A 0.72 0.69 83.4 0 1 45.50 10.23
  L 45.50 20.26
  A 0.95 0.90 0.3 0 1 44.54 21.16
  L 35.53 21.05
  Z
  M 41.56 19.03
  Q 43.45 19.15 43.38 17.06
  Q 43.32 15.14 43.32 14.93
  Q 43.33 13.84 43.07 12.79
  A 0.55 0.50 76.2 0 0 42.45 12.38
  L 37.29 13.65
  A 1.08 0.92 -82.7 0 0 36.61 14.27
  Q 34.59 19.26 39.31 18.95
  Q 39.80 18.91 41.56 19.03
  Z"
/>
<path fill="#286ff5" d="
  M 39.31 18.95
  Q 34.59 19.26 36.61 14.27
  A 1.08 0.92 -82.7 0 1 37.29 13.65
  L 42.45 12.38
  A 0.55 0.50 76.2 0 1 43.07 12.79
  Q 43.33 13.84 43.32 14.93
  Q 43.32 15.14 43.38 17.06
  Q 43.45 19.15 41.56 19.03
  Q 39.80 18.91 39.31 18.95
  Z"
/>
<path fill="#ffffff" d="
  M 15.5413 22.8661
  A 0.87 0.87 0.0 0 1 14.6820 23.7466
  L 14.1620 23.7530
  A 0.87 0.87 0.0 0 1 13.2815 22.8937
  L 13.2387 19.3939
  A 0.87 0.87 0.0 0 1 14.0980 18.5134
  L 14.6180 18.5070
  A 0.87 0.87 0.0 0 1 15.4985 19.3663
  L 15.5413 22.8661
  Z"
/>
<path fill="#ffffff" d="
  M 20.2399 22.7451
  A 0.98 0.98 0.0 0 1 19.2480 23.7131
  L 18.7080 23.7065
  A 0.98 0.98 0.0 0 1 17.7401 22.7146
  L 17.7801 19.4349
  A 0.98 0.98 0.0 0 1 18.7720 18.4669
  L 19.3120 18.4735
  A 0.98 0.98 0.0 0 1 20.2799 19.4654
  L 20.2399 22.7451
  Z"
/>
<path fill="#ffffff" d="
  M 24.5762 22.9276
  A 0.81 0.81 0.0 0 1 23.7466 23.7175
  L 23.0668 23.7009
  A 0.81 0.81 0.0 0 1 22.2769 22.8714
  L 22.3638 19.3124
  A 0.81 0.81 0.0 0 1 23.1934 18.5225
  L 23.8732 18.5391
  A 0.81 0.81 0.0 0 1 24.6631 19.3686
  L 24.5762 22.9276
  Z"
/>
<path fill="#ffffff" d="
  M 28.0940 23.8300
  A 2.67 1.28 89.7 0 1 26.8000 21.1667
  A 2.67 1.28 89.7 0 1 28.0660 18.4900
  A 2.67 1.28 89.7 0 1 29.3600 21.1533
  A 2.67 1.28 89.7 0 1 28.0940 23.8300
  Z"
/>
<path fill="#286ff5" d="
  M 30.44 30.30
  L 21.31 30.25
  A 1.08 1.06 -90.0 0 0 20.25 31.33
  L 20.25 40.86
  A 1.14 1.11 -89.8 0 1 19.13 42.00
  L 12.32 41.95
  A 1.24 1.13 -19.8 0 1 11.45 41.59
  Q 10.26 40.32 11.68 39.74
  Q 12.12 39.56 13.35 39.57
  Q 14.17 39.58 14.96 39.35
  A 0.71 0.67 82.4 0 0 15.44 38.68
  L 15.55 28.98
  A 1.07 1.07 2.3 0 1 16.69 27.93
  Q 26.50 28.48 35.30 27.98
  A 0.90 0.90 -1.5 0 1 36.25 28.88
  Q 36.25 34.06 36.25 38.58
  Q 36.25 41.06 36.07 41.37
  Q 35.38 42.54 32.55 42.04
  A 0.80 0.79 1.0 0 1 31.90 41.37
  Q 31.54 38.74 31.50 36.74
  Q 31.49 36.69 31.71 34.27
  Q 31.88 32.46 31.15 30.76
  A 0.78 0.76 -11.5 0 0 30.44 30.30
  Z"
/>
<path fill="#0d51d7" d="
  M 40.6683 41.3333
  A 0.89 0.89 0.0 0 1 39.7752 42.2202
  L 39.6152 42.2197
  A 0.89 0.89 0.0 0 1 38.7283 41.3266
  L 38.7717 28.8867
  A 0.89 0.89 0.0 0 1 39.6648 27.9998
  L 39.8248 28.0003
  A 0.89 0.89 0.0 0 1 40.7117 28.8934
  L 40.6683 41.3333
  Z"
/>
<path fill="#0d51d7" d="
  M 45.49 41.40
  A 0.79 0.79 0.0 0 1 44.70 42.19
  L 44.28 42.19
  A 0.79 0.79 0.0 0 1 43.49 41.40
  L 43.49 28.80
  A 0.79 0.79 0.0 0 1 44.28 28.01
  L 44.70 28.01
  A 0.79 0.79 0.0 0 1 45.49 28.80
  L 45.49 41.40
  Z"
/>
<path fill="#0d51d7" d="
  M 49.8970 41.1594
  A 1.01 1.01 0.0 0 1 48.8782 42.1605
  L 48.6982 42.1589
  A 1.01 1.01 0.0 0 1 47.6971 41.1402
  L 47.8030 29.0006
  A 1.01 1.01 0.0 0 1 48.8218 27.9995
  L 49.0018 28.0011
  A 1.01 1.01 0.0 0 1 50.0029 29.0198
  L 49.8970 41.1594
  Z"
/>
<path fill="#286ff5" d="
  M 27.94 35.38
  Q 26.09 35.91 27.78 36.84
  Q 29.81 37.95 28.88 41.38
  A 1.20 1.18 7.6 0 1 27.73 42.25
  L 23.55 42.25
  A 1.01 0.96 0.3 0 1 22.54 41.28
  L 22.65 33.19
  A 0.56 0.54 89.5 0 1 23.18 32.63
  L 27.94 32.52
  A 1.23 1.05 64.7 0 1 28.79 32.90
  Q 30.49 34.65 27.94 35.38
  Z"
/>
</svg>
